<?xml version="1.0" encoding="UTF-8" standalone="no"?>
<svg
   xmlns:dc="http://purl.org/dc/elements/1.1/"
   xmlns:cc="http://creativecommons.org/ns#"
   xmlns:rdf="http://www.w3.org/1999/02/22-rdf-syntax-ns#"
   xmlns:svg="http://www.w3.org/2000/svg"
   xmlns="http://www.w3.org/2000/svg"
   xmlns:sodipodi="http://sodipodi.sourceforge.net/DTD/sodipodi-0.dtd"
   xmlns:inkscape="http://www.inkscape.org/namespaces/inkscape"
   version="1.1"
   width="450px"
   height="253px"
   style="shape-rendering:geometricPrecision; text-rendering:geometricPrecision; image-rendering:optimizeQuality; fill-rule:evenodd; clip-rule:evenodd"
   id="svg4136"
   inkscape:version="0.91 r13725"
   sodipodi:docname="british-flag.svg">
  <metadata
     id="metadata4598">
    <rdf:RDF>
      <cc:Work
         rdf:about="">
        <dc:format>image/svg+xml</dc:format>
        <dc:type
           rdf:resource="http://purl.org/dc/dcmitype/StillImage" />
        <dc:title></dc:title>
      </cc:Work>
    </rdf:RDF>
  </metadata>
  <defs
     id="defs4596" />
  <sodipodi:namedview
     pagecolor="#ffffff"
     bordercolor="#666666"
     borderopacity="1"
     objecttolerance="10"
     gridtolerance="10"
     guidetolerance="10"
     inkscape:pageopacity="0"
     inkscape:pageshadow="2"
     inkscape:window-width="1605"
     inkscape:window-height="969"
     id="namedview4594"
     showgrid="false"
     inkscape:zoom="1.4833529"
     inkscape:cx="204.20698"
     inkscape:cy="89.75185"
     inkscape:window-x="0"
     inkscape:window-y="0"
     inkscape:window-maximized="0"
     inkscape:current-layer="layer2" />
  <g
     inkscape:groupmode="layer"
     id="layer1"
     inkscape:label="red"
     style="display:inline"
     sodipodi:insensitive="true">
    <path
       style="fill:#ff0000;fill-opacity:0.4;fill-rule:evenodd;stroke:#000000;stroke-width:0;stroke-linecap:butt;stroke-linejoin:miter;stroke-miterlimit:4;stroke-dasharray:none;stroke-opacity:1"
       d="m -0.47669492,42.777542 c 0,0 52.43644092,15.730932 58.63347492,17.637712 6.197034,1.90678 52.19809,13.585805 52.19809,13.585805 0,0 -11.202327,4.051907 -14.062497,4.528602 -2.860169,0.476695 -15.730932,3.336864 -15.730932,3.336864 0,0 -32.415254,-11.679025 -38.373941,-13.10911 C 36.228814,67.32733 -0.71504237,57.07839 -0.71504237,57.07839 Z"
       id="path4606"
       inkscape:connector-curvature="0" />
    <path
       style="fill:#ff0000;fill-opacity:0.4;fill-rule:evenodd;stroke:#000000;stroke-width:0;stroke-linecap:butt;stroke-linejoin:miter;stroke-miterlimit:4;stroke-dasharray:none;stroke-opacity:1"
       d="m 92.002119,253.47669 c 0,0 15.730931,-19.06779 19.067801,-24.54978 3.33686,-5.48199 14.0625,-22.16632 16.44597,-26.93327 2.38347,-4.76695 14.77754,-23.1197 17.39936,-21.92796 2.62183,1.19174 10.96399,-2.38348 13.58581,-2.38348 2.62182,0 32.41525,-0.47669 32.41525,-0.47669 0,0 -15.96928,9.29555 -19.06779,11.67902 -3.09852,2.38348 -15.01589,10.48729 -18.82945,15.01589 -3.81356,4.52861 -16.44598,22.40466 -18.5911,26.69492 -2.14513,4.29025 -15.01589,23.35805 -15.01589,23.35805 z"
       id="path4608"
       inkscape:connector-curvature="0" />
    <path
       style="fill:#ff0000;fill-opacity:0.4;fill-rule:evenodd;stroke:#000000;stroke-width:0;stroke-linecap:butt;stroke-linejoin:miter;stroke-miterlimit:4;stroke-dasharray:none;stroke-opacity:1"
       d="m 450.71504,172.91525 c 0,0 -38.61229,-12.87076 -47.66949,-15.01589 -9.0572,-2.14512 -39.08898,-10.72563 -39.08898,-10.72563 l 30.50847,-5.95869 56.7267,17.87606 z"
       id="path4618"
       inkscape:connector-curvature="0" />
    <path
       style="fill:#ff0000;fill-opacity:0.4;fill-rule:evenodd;stroke:#000000;stroke-width:0;stroke-linecap:butt;stroke-linejoin:miter;stroke-miterlimit:4;stroke-dasharray:none;stroke-opacity:1"
       d="m 345.36547,-0.1250004 c 0,0 -22.40466,17.3993644 -24.54979,20.0211864 -2.14513,2.621822 -21.45127,25.979873 -21.45127,25.979873 l -27.88666,4.290254 c 0,0 10.24895,-15.492585 13.82416,-19.782839 3.57521,-4.290254 17.39936,-17.399364 19.54449,-19.306144 2.14513,-1.9067795 16.44597,-12.1557202 16.44597,-12.1557202 z"
       id="path4620"
       inkscape:connector-curvature="0" />
    <path
       style="clip-rule:evenodd;display:inline;fill:#ff0000;fill-opacity:0.4;fill-rule:evenodd;stroke:#000000;stroke-width:0;stroke-linecap:butt;stroke-linejoin:miter;stroke-miterlimit:4;stroke-dasharray:none;stroke-opacity:1;image-rendering:optimizeQuality;shape-rendering:geometricPrecision;text-rendering:geometricPrecision"
       d="m 150.63668,-1.0806004 c 0,0 16.20763,41.4724584 18.5911,47.1927974 2.38347,5.720339 18.11441,36.228813 18.11441,36.228813 0,0 -32.89195,7.150424 -38.61229,8.580509 -5.72034,1.430085 -49.57627,12.394071 -53.866526,12.870761 -4.290254,0.4767 -50.529661,0.95339 -58.156779,2.38348 -7.627119,1.43008 -37.18220343,9.53389 -37.18220343,9.53389 l 0.47669491,83.89831 c 0,0 15.25423652,0.95339 23.35805052,-0.4767 8.103814,-1.43008 40.995763,-18.1144 49.576271,-21.45127 8.580509,-3.33686 46.716102,-15.73093 53.866522,-17.16101 7.15043,-1.43009 98.67585,-11.44068 98.67585,-11.44068 0,0 11.44068,31.93856 14.30085,36.22881 2.86017,4.29026 20.02118,29.07839 21.92796,33.36865 1.90678,4.29025 15.25424,36.7055 15.25424,36.7055 l 72.45763,-0.95339 c 0,0 -18.5911,-35.75211 -22.88136,-40.51906 -4.29025,-4.76695 -25.74152,-22.40466 -29.55508,-28.125 -3.81356,-5.72034 -19.54449,-53.38983 -19.54449,-53.38983 0,0 81.99152,-7.62712 88.18856,-8.58051 6.19703,-0.95339 56.25,-10.0106 62.44703,-11.91737 6.19703,-1.90678 24.31144,-7.15043 24.31144,-7.15043 l 0,-66.737287 c 0,0 -24.31144,0.476695 -32.41525,1.90678 -8.10382,1.430085 -56.7267,17.637712 -61.97034,19.067796 -5.24365,1.430085 -112.02331,15.730933 -112.02331,15.730933 0,0 -15.73093,-33.368644 -18.11441,-38.612289 -2.38347,-5.243644 -19.54449,-37.1822034 -19.54449,-37.1822034 z"
       id="path4626"
       inkscape:connector-curvature="0" />
  </g>
  <g
     inkscape:groupmode="layer"
     id="layer3"
     inkscape:label="shadow"
     style="display:inline"
     sodipodi:insensitive="true">
    <path
       style="fill:#000000;fill-opacity:0.09767444;fill-rule:evenodd;stroke:#000000;stroke-width:0;stroke-linecap:butt;stroke-linejoin:miter;stroke-miterlimit:4;stroke-dasharray:none;stroke-opacity:1"
       d="m -7.1504237,110.94492 c 0,0 51.9597457,59.11016 63.4004237,68.64406 11.440678,9.5339 65.7839,41.47246 72.93432,47.1928 7.15043,5.72034 41.47246,29.55508 41.47246,29.55508 l -173.5169495,0 z"
       id="path4644"
       inkscape:connector-curvature="0" />
    <path
       style="fill:#000000;fill-opacity:0.09767444;fill-rule:evenodd;stroke:#000000;stroke-width:0;stroke-linecap:butt;stroke-linejoin:miter;stroke-miterlimit:4;stroke-dasharray:none;stroke-opacity:1"
       d="m 453.81356,256.81356 -171.13347,0.95339 c 0,0 -18.11441,-22.40466 -23.35806,-25.26483 -5.24364,-2.86017 -53.86652,-26.21822 -62.92372,-32.89195 C 187.3411,192.93644 86.758475,125.72246 76.271187,118.09534 65.783898,110.46822 42.425848,94.260593 31.461864,90.447034 20.497881,86.633474 -6.6737288,71.379237 -6.6737288,71.379237 l 1.4300847,-77.2245763 c 0,0 38.1355931,17.6377123 45.7627121,22.8813563 7.627118,5.243644 86.281782,77.701271 89.141952,80.084746 2.86017,2.383474 67.69068,41.949157 80.08474,45.762707 12.39407,3.81356 132.04449,38.61229 145.86865,44.33263 13.82415,5.72034 74.8411,32.89195 85.80508,37.18221 10.96399,4.29025 10.96399,7.62711 10.96399,7.62711 z"
       id="path4646"
       inkscape:connector-curvature="0" />
    <path
       style="fill:#000000;fill-opacity:0.09767444;fill-rule:evenodd;stroke:#000000;stroke-width:0;stroke-linecap:butt;stroke-linejoin:miter;stroke-miterlimit:4;stroke-dasharray:none;stroke-opacity:1"
       d="m 454.29025,178.1589 c 0,0 -90.09533,-15.25424 -101.53601,-20.97458 C 341.31356,151.46398 244.54449,96.644068 232.62712,91.877118 220.70975,87.110169 121.5572,24.663135 114.40678,22.756356 107.25636,20.849576 44.809322,-6.3220342 44.809322,-6.3220342 L 253.125,-7.275424 c 0,0 5.72034,14.7775424 9.0572,17.637712 3.33687,2.860169 70.55085,27.648305 81.03814,33.368644 10.48729,5.720339 112.5,60.063558 112.5,60.063558 z"
       id="path4648"
       inkscape:connector-curvature="0" />
    <path
       style="fill:#000000;fill-opacity:0.09767444;fill-rule:evenodd;stroke:#000000;stroke-width:0;stroke-linecap:butt;stroke-linejoin:miter;stroke-miterlimit:4;stroke-dasharray:none;stroke-opacity:1"
       d="m 359.90466,-8.2288138 c 0,0 38.61229,13.8241525 49.09958,21.9279658 10.48729,8.103814 45.28601,43.379238 45.28601,43.379238 l -0.95339,-60.0635598 z"
       id="path4650"
       inkscape:connector-curvature="0" />
  </g>
  <g
     inkscape:groupmode="layer"
     id="layer2"
     inkscape:label="blue"
     style="display:inline">
    <path
       style="fill:#0000ff;fill-opacity:0.3255814;fill-rule:evenodd;stroke:#000000;stroke-width:0;stroke-linecap:butt;stroke-linejoin:miter;stroke-miterlimit:4;stroke-dasharray:none;stroke-opacity:1"
       d="m -0.23834746,19.419491 c 0,0 63.63877146,18.114407 72.21927946,20.497882 8.580509,2.383474 80.561438,18.352754 80.561438,18.352754 0,0 -8.81885,-25.741526 -10.72563,-30.508475 -1.90678,-4.766949 -11.67903,-28.60169477 -11.67903,-28.60169477 L -0.47669492,-0.60169532 Z"
       id="path4602"
       inkscape:connector-curvature="0" />
    <path
       style="fill:#0000ff;fill-opacity:0.3255814;fill-rule:evenodd;stroke:#000000;stroke-width:0;stroke-linecap:butt;stroke-linejoin:miter;stroke-miterlimit:4;stroke-dasharray:none;stroke-opacity:1"
       d="m -0.47669492,67.32733 c 0,0 19.78283892,4.766949 23.83474592,5.958687 4.051907,1.191737 31.700212,9.295551 31.700212,9.295551 0,0 -33.368644,-0.95339 -37.658899,0 -4.290254,0.953389 -17.63771146,4.766949 -17.63771146,4.766949 z"
       id="path4604"
       inkscape:connector-curvature="0" />
    <path
       style="fill:#0000ff;fill-opacity:0.3255814;fill-rule:evenodd;stroke:#000000;stroke-width:0;stroke-linecap:butt;stroke-linejoin:miter;stroke-miterlimit:4;stroke-dasharray:none;stroke-opacity:1"
       d="m -1.1917373,223.92161 c 0,0 17.8760593,2.62182 27.6483053,-0.71504 9.772246,-3.33687 26.694915,-13.10911 32.176907,-14.5392 5.481991,-1.43008 38.135593,-12.87076 38.135593,-12.87076 0,0 -2.621822,3.57521 -5.243644,5.95869 -2.621822,2.38347 -20.736229,24.78813 -22.643009,26.69491 C 66.975636,230.35699 40.042373,253 40.042373,253 l -40.51906792,0 z"
       id="path4610"
       inkscape:connector-curvature="0" />
    <path
       style="fill:#0000ff;fill-opacity:0.3255814;fill-rule:evenodd;stroke:#000000;stroke-width:0;stroke-linecap:butt;stroke-linejoin:miter;stroke-miterlimit:4;stroke-dasharray:none;stroke-opacity:1"
       d="m 141.57839,254.19174 c 0,0 11.20233,-21.45127 16.92267,-28.84005 5.72034,-7.38877 23.83475,-23.83474 28.84004,-27.40995 5.0053,-3.57521 28.6017,-19.0678 28.6017,-19.0678 0,0 17.16101,25.26483 19.54449,30.27013 2.38347,5.00529 15.49258,44.57097 15.49258,44.57097 z"
       id="path4612"
       inkscape:connector-curvature="0" />
    <path
       style="fill:#0000ff;fill-opacity:0.3255814;fill-rule:evenodd;stroke:#000000;stroke-width:0;stroke-linecap:butt;stroke-linejoin:miter;stroke-miterlimit:4;stroke-dasharray:none;stroke-opacity:1"
       d="m 373.25212,253.23835 c 0,0 -11.67903,-26.45657 -15.73093,-30.74682 -4.05191,-4.29026 -27.64831,-25.50318 -31.93856,-30.50848 -4.29026,-5.0053 -10.96399,-16.20763 -12.39407,-19.54449 -1.43008,-3.33687 -2.38347,-12.39407 -2.38347,-12.39407 0,0 25.26483,10.48729 31.22351,12.15572 5.95869,1.66843 61.01695,13.10911 69.59746,14.77754 8.58051,1.66844 39.80403,11.44068 39.80403,11.44068 L 451.19174,253 Z"
       id="path4614"
       inkscape:connector-curvature="0" />
    <path
       style="fill:#0000ff;fill-opacity:0.3255814;fill-rule:evenodd;stroke:#000000;stroke-width:0;stroke-linecap:butt;stroke-linejoin:miter;stroke-miterlimit:4;stroke-dasharray:none;stroke-opacity:1"
       d="m 450.4767,150.98729 -33.1303,-12.15572 c 0,0 18.11441,-2.62182 21.45127,-3.09852 3.33686,-0.47669 11.91737,-1.66843 11.91737,-1.66843 z"
       id="path4616"
       inkscape:connector-curvature="0" />
    <path
       style="fill:#0000ff;fill-opacity:0.3255814;fill-rule:evenodd;stroke:#000000;stroke-width:0;stroke-linecap:butt;stroke-linejoin:miter;stroke-miterlimit:4;stroke-dasharray:none;stroke-opacity:1"
       d="m 451.90678,16.559322 c 0,0 -27.6483,-0.476695 -39.08898,1.906779 -11.44068,2.383475 -37.18221,10.725636 -40.04238,11.679026 -2.86017,0.95339 -25.26483,7.150424 -25.26483,7.150424 0,0 15.01589,-19.306145 18.11441,-22.404662 3.09852,-3.098517 15.25424,-15.49258432 15.25424,-15.49258432 l 69.8358,0 z"
       id="path4622"
       inkscape:connector-curvature="0" />
    <path
       style="fill:#0000ff;fill-opacity:0.3255814;fill-rule:evenodd;stroke:#000000;stroke-width:0;stroke-linecap:butt;stroke-linejoin:miter;stroke-miterlimit:4;stroke-dasharray:none;stroke-opacity:1"
       d="m 303.89301,-0.84004277 c 0,0 -23.5964,16.92266977 -25.97987,20.25953377 -2.38348,3.336865 -22.88136,29.793432 -22.88136,29.793432 0,0 -11.20233,-17.161017 -14.77754,-23.119703 -3.57521,-5.958686 -14.0625,-26.69491532 -14.0625,-26.69491532 z"
       id="path4624"
       inkscape:connector-curvature="0" />
  </g>
</svg>
