<?xml version="1.0" encoding="UTF-8" standalone="no"?>
<!DOCTYPE svg PUBLIC "-//W3C//DTD SVG 1.1//EN" "http://www.w3.org/Graphics/SVG/1.1/DTD/svg11.dtd">
<svg xmlns="http://www.w3.org/2000/svg" version="1.1" viewBox="0 0 25 25">
<path fill="#07e803" d="
  M 19.00 5.89
  Q 19.80 4.94 21.14 4.18
  A 0.81 0.80 -42.2 0 1 22.01 4.22
  Q 25.28 6.55 22.81 8.89
  Q 21.94 9.71 21.86 9.79
  Q 16.47 15.54 10.97 20.67
  A 1.23 1.22 -44.5 0 1 9.29 20.66
  Q 5.62 17.13 2.21 13.54
  Q 0.31 11.55 2.57 9.57
  A 1.62 1.61 46.7 0 1 4.77 9.64
  L 9.73 14.60
  A 0.66 0.66 -45.6 0 0 10.68 14.59
  Q 14.28 10.77 17.74 7.37
  Q 17.77 7.34 19.00 5.89
  Z"
/>
</svg>
