<?xml version="1.0" encoding="UTF-8" standalone="no"?>
<!DOCTYPE svg PUBLIC "-//W3C//DTD SVG 1.1//EN" "http://www.w3.org/Graphics/SVG/1.1/DTD/svg11.dtd">
<svg xmlns="http://www.w3.org/2000/svg" version="1.1" viewBox="0 0 25 25">
<path fill="#ff2c29" d="
  M 14.14 8.30
  L 19.94 4.17
  A 1.42 1.42 -27.9 0 1 21.93 6.16
  L 17.81 11.96
  A 1.42 1.42 45.5 0 0 17.81 13.61
  L 21.94 19.40
  A 1.42 1.42 46.4 0 1 19.96 21.39
  L 14.15 17.27
  A 1.42 1.42 38.5 0 0 12.51 17.28
  L 6.71 21.41
  A 1.42 1.42 -41.9 0 1 4.72 19.42
  L 8.84 13.62
  A 1.42 1.42 -46.1 0 0 8.84 11.97
  L 4.71 6.18
  A 1.42 1.42 13.8 0 1 6.69 4.19
  L 12.50 8.31
  A 1.42 1.42 -47.6 0 0 14.14 8.30
  Z"
/>
</svg>
