<?xml version="1.0" encoding="UTF-8" standalone="no"?>
<!-- Created with Inkscape (http://www.inkscape.org/) -->

<svg
   xmlns:dc="http://purl.org/dc/elements/1.1/"
   xmlns:cc="http://creativecommons.org/ns#"
   xmlns:rdf="http://www.w3.org/1999/02/22-rdf-syntax-ns#"
   xmlns:svg="http://www.w3.org/2000/svg"
   xmlns="http://www.w3.org/2000/svg"
   xmlns:sodipodi="http://sodipodi.sourceforge.net/DTD/sodipodi-0.dtd"
   xmlns:inkscape="http://www.inkscape.org/namespaces/inkscape"
   width="96"
   height="96"
   viewBox="0 0 96 96"
   id="svg2"
   version="1.1"
   inkscape:version="0.91 r13725"
   sodipodi:docname="iconeTSFWS.svg">
  <defs
     id="defs4" />
  <sodipodi:namedview
     id="base"
     pagecolor="#ffffff"
     bordercolor="#666666"
     borderopacity="1.0"
     inkscape:pageopacity="0.0"
     inkscape:pageshadow="2"
     inkscape:zoom="4.7919112"
     inkscape:cx="40.223691"
     inkscape:cy="50.041608"
     inkscape:document-units="px"
     inkscape:current-layer="layer2"
     showgrid="false"
     inkscape:window-width="1161"
     inkscape:window-height="934"
     inkscape:window-x="306"
     inkscape:window-y="34"
     inkscape:window-maximized="0"
     units="px" />
  <metadata
     id="metadata7">
    <rdf:RDF>
      <cc:Work
         rdf:about="">
        <dc:format>image/svg+xml</dc:format>
        <dc:type
           rdf:resource="http://purl.org/dc/dcmitype/StillImage" />
        <dc:title></dc:title>
      </cc:Work>
    </rdf:RDF>
  </metadata>
  <g
     inkscape:groupmode="layer"
     id="layer2"
     inkscape:label="Layer 2"
     style="display:inline"
     transform="translate(0,-956.3622)">
    <path
       style="display:inline;fill:#000000;fill-opacity:1;fill-rule:evenodd;stroke:none;stroke-width:0.1;stroke-linecap:butt;stroke-linejoin:miter;stroke-miterlimit:4;stroke-dasharray:none;stroke-opacity:1"
       d="m 46.899792,984.30311 c 1.367819,4.90042 3.67496,8.39307 5.543163,11.25122 2.414195,3.69358 4.953502,8.05027 15.235217,14.72527 7.993061,6.136 21.9408,14.2165 25.725458,21.0758 2.727172,5.4152 1.807196,11.8496 -0.484895,15.528 -2.292129,3.6781 -9.233496,5.9687 -13.510906,4.8323 -3.570925,-0.9488 -32.866856,-17.2748 -37.791188,-19.3719 -5.300787,-2.2846 -8.154775,-3.5617 -12.0971,-6.43 -4.443019,-3.2328 -12.266645,-7.6563 -14.518507,-10.3491 -2.294394,-2.7437 -4.810117,-5.9151 -4.06153,-12.2398 0.645228,-5.2643 1.422781,-8.38136 1.371914,-13.7236 -0.04541,-4.75181 3.047954,-9.57758 4.93753,-11.75059 1.889617,-2.17268 7.230501,-2.86489 12.110786,-5.34372 9.852798,-1.80708 14.736881,6.35746 17.540058,11.79612 z"
       id="path4150"
       inkscape:connector-curvature="0"
       sodipodi:nodetypes="csccsscsscsccc" />
    <path
       style="fill:#000000;fill-opacity:1;fill-rule:evenodd;stroke:none;stroke-width:0.1;stroke-linecap:butt;stroke-linejoin:miter;stroke-miterlimit:4;stroke-dasharray:none;stroke-opacity:1"
       d="m 10.883178,958.91529 c 3.319991,-3.34499 7.615954,-1.80308 10.736176,0.59452 3.154401,2.6669 4.07523,6.53718 2.572707,9.59425 -2.459243,3.54665 -6.615491,3.89146 -10.867778,0.80678 -3.9841611,-3.6693 -4.0465112,-8.10679 -2.441105,-10.99555 z"
       id="path4167"
       inkscape:connector-curvature="0"
       sodipodi:nodetypes="cccccc" />
    <path
       style="fill:#000000;fill-opacity:1;fill-rule:evenodd;stroke:none;stroke-width:0.1;stroke-linecap:butt;stroke-linejoin:miter;stroke-miterlimit:4;stroke-dasharray:none;stroke-opacity:1"
       d="m 4.7823565,970.36714 c 0.9046657,-1.64782 3.6275629,-1.49976 5.0473839,-0.28065 1.6956986,1.44775 2.3793396,2.79624 1.6314016,4.51893 -0.747901,1.7227 -3.2718902,1.84358 -4.9281695,0.43374 -1.1801042,-0.83507 -2.6914529,-2.86917 -1.7506281,-4.67272 z"
       id="path4169"
       inkscape:connector-curvature="0"
       sodipodi:nodetypes="ccscc" />
    <path
       style="fill:#000000;fill-opacity:1;fill-rule:evenodd;stroke:none;stroke-width:0.1;stroke-linecap:butt;stroke-linejoin:miter;stroke-miterlimit:4;stroke-dasharray:none;stroke-opacity:1"
       d="m 2.1644073,976.93652 c 1.6843522,-1.5053 3.1286436,-0.21324 4.6927915,1.16756 1.8240603,1.61112 1.1270232,3.71724 0.1382847,4.97769 -1.2683857,0.99046 -3.7529842,0.53648 -4.8777715,-0.94499 -1.0929844,-1.43958 -1.28283892,-2.92339 0.046767,-5.20026 z"
       id="path4171"
       inkscape:connector-curvature="0"
       sodipodi:nodetypes="cscscc" />
    <path
       style="display:inline;fill:#000000;fill-opacity:1;fill-rule:evenodd;stroke:none;stroke-width:0.1;stroke-linecap:butt;stroke-linejoin:miter;stroke-miterlimit:4;stroke-dasharray:none;stroke-opacity:1"
       d="m 1.9051587,988.16444 c 1.8473044,-1.61832 3.8034124,-1.40677 5.2681861,-0.54595 1.7122081,1.00583 2.3879108,3.53058 1.3989607,4.79104 -0.9889848,1.26044 -5.236987,1.59428 -6.3498585,0.14275 -1.1129413,-1.45767 -0.885623,-2.81331 -0.3173227,-4.38169 z"
       id="path4171-1"
       inkscape:connector-curvature="0"
       sodipodi:nodetypes="cscsc" />
    <path
       style="display:inline;fill:#000000;fill-opacity:1;fill-rule:evenodd;stroke:none;stroke-width:0.1;stroke-linecap:butt;stroke-linejoin:miter;stroke-miterlimit:4;stroke-dasharray:none;stroke-opacity:1"
       d="m 3.5506069,998.14239 c 0.987665,-1.33798 3.4392389,-1.1467 4.5923751,0.3882 1.1928124,1.58781 0.8372129,3.52221 -0.1205968,4.31571 -1.1503094,0.9134 -3.1270997,1.2193 -4.2400226,-0.2374 -1.1129747,-1.4576 -1.2928172,-2.89254 -0.2314536,-4.46512 z"
       id="path4171-8"
       inkscape:connector-curvature="0"
       sodipodi:nodetypes="cscsc" />
  </g>
</svg>
